<svg xmlns="http://www.w3.org/2000/svg" xml:space="preserve" width="2048" height="2048" style="shape-rendering:geometricPrecision;text-rendering:geometricPrecision;image-rendering:optimizeQuality;fill-rule:evenodd;clip-rule:evenodd"><defs><style>.fil3{fill:#a4d1e6}.fil1{fill:#b3e5fc}</style></defs><g id="Layer_x0020_1"><g id="_353066080"><path d="M468 544h1240c23 0 44 9 59 25 15 15 25 36 25 59v696c0 23-9 44-25 59-15 15-36 25-59 25H468c-23 0-44-9-59-25-15-15-25-36-25-59v-44h-76c-14 0-27-6-37-15-9-9-15-22-15-37V724c0-14 6-27 15-37 9-9 22-15 37-15h76v-44c0-23 9-44 25-59 15-15 36-25 59-25z" style="fill:#00b8d4"/><path class="fil1" d="M1440 674h222v604h-252V674zM845 674h222v604H815V674zM1143 674h222v604h-252V674zM546 674h222v604H516V674z"/></g><g id="_353067424"><path d="M1792 976v348c0 23-9 44-25 59-15 15-36 25-59 25H468c-23 0-44-9-59-25-15-15-25-36-25-59v-44h-76c-14 0-27-6-37-15-9-9-15-22-15-37V976h1536z" style="fill:#03a9c2"/><path class="fil3" d="M1662 976v302h-252V976zM1067 976v302H815V976zM1365 976v302h-252V976zM768 976v302H516V976z"/></g><path style="fill:none" d="M0 0h2048v2048H0z"/></g></svg>