<svg version="1.1" id="Layer_1" xmlns="http://www.w3.org/2000/svg" x="0" y="0" viewBox="0 0 256 256" style="enable-background:new 0 0 256 256" xml:space="preserve"><style>.st0{fill:#4671c6}.st1{fill:#f9cfcf}.st4{fill:#3762cc}.st5{fill:#e0ebfc}</style><path class="st0" d="M229.688 247.688H26.312c-9.941 0-18-8.059-18-18V26.312c0-9.941 8.059-18 18-18h203.375c9.941 0 18 8.059 18 18v203.375c.001 9.942-8.058 18.001-17.999 18.001z"/><path class="st1" d="M227.885 235.719H28.115a7.833 7.833 0 0 1-7.834-7.834V28.115a7.833 7.833 0 0 1 7.834-7.834h199.769a7.833 7.833 0 0 1 7.834 7.834v199.769a7.833 7.833 0 0 1-7.833 7.835z"/><path class="st1" d="M63.369 20.281h43.088v43.088H63.369z"/><path class="st1" d="M106.456 20.281h43.088v43.088h-43.088zM149.544 20.281h43.087v43.088h-43.087zM63.369 63.369h43.088v43.088H63.369z"/><path class="st1" d="M106.456 63.369h43.088v43.088h-43.088zM149.544 63.369h43.087v43.088h-43.087z"/><path class="st1" d="M63.369 106.456h43.088v43.088H63.369z"/><path class="st1" d="M106.456 106.456h43.088v43.088h-43.088zM149.544 106.456h43.087v43.088h-43.087zM63.369 149.544h43.088v43.088H63.369z"/><path class="st1" d="M106.456 149.544h43.088v43.088h-43.088zM149.544 149.544h43.087v43.088h-43.087z"/><path class="st1" d="M63.369 192.631h43.088v43.088H63.369z"/><path class="st1" d="M106.456 192.631h43.088v43.088h-43.088zM149.544 192.631h43.087v43.088h-43.087zM192.631 63.369h43.087v43.088h-43.087z"/><path class="st1" d="M192.631 106.456h43.087v43.088h-43.087zM192.631 149.544h43.087v43.088h-43.087zM20.281 63.369h43.088v43.088H20.281z"/><path class="st1" d="M20.281 106.456h43.088v43.088H20.281zM20.281 149.544h43.088v43.088H20.281z"/><path class="st4" d="M106.456 65.369H63.369a2 2 0 0 1-2-2V20.281a2 2 0 0 1 2-2h43.087a2 2 0 0 1 2 2v43.088a2 2 0 0 1-2 2zm-41.087-4h39.087V22.281H65.369v39.088z"/><path class="st4" d="M149.544 65.369h-43.088a2 2 0 0 1-2-2V20.281a2 2 0 0 1 2-2h43.088a2 2 0 0 1 2 2v43.088a2 2 0 0 1-2 2zm-41.088-4h39.088V22.281h-39.088v39.088z"/><path class="st4" d="M192.631 65.369h-43.087a2 2 0 0 1-2-2V20.281a2 2 0 0 1 2-2h43.087a2 2 0 0 1 2 2v43.088a2 2 0 0 1-2 2zm-41.087-4h39.087V22.281h-39.087v39.088zM106.456 108.456H63.369a2 2 0 0 1-2-2V63.369a2 2 0 0 1 2-2h43.087a2 2 0 0 1 2 2v43.087a2 2 0 0 1-2 2zm-41.087-4h39.087V65.369H65.369v39.087z"/><path class="st4" d="M149.544 108.456h-43.088a2 2 0 0 1-2-2V63.369a2 2 0 0 1 2-2h43.088a2 2 0 0 1 2 2v43.087a2 2 0 0 1-2 2zm-41.088-4h39.088V65.369h-39.088v39.087z"/><path class="st4" d="M192.631 108.456h-43.087a2 2 0 0 1-2-2V63.369a2 2 0 0 1 2-2h43.087a2 2 0 0 1 2 2v43.087a2 2 0 0 1-2 2zm-41.087-4h39.087V65.369h-39.087v39.087zM106.456 151.544H63.369a2 2 0 0 1-2-2v-43.088a2 2 0 0 1 2-2h43.087a2 2 0 0 1 2 2v43.088a2 2 0 0 1-2 2zm-41.087-4h39.087v-39.088H65.369v39.088z"/><path class="st4" d="M149.544 151.544h-43.088a2 2 0 0 1-2-2v-43.088a2 2 0 0 1 2-2h43.088a2 2 0 0 1 2 2v43.088a2 2 0 0 1-2 2zm-41.088-4h39.088v-39.088h-39.088v39.088z"/><path class="st4" d="M192.631 151.544h-43.087a2 2 0 0 1-2-2v-43.088a2 2 0 0 1 2-2h43.087a2 2 0 0 1 2 2v43.088a2 2 0 0 1-2 2zm-41.087-4h39.087v-39.088h-39.087v39.088zM106.456 194.631H63.369a2 2 0 0 1-2-2v-43.087a2 2 0 0 1 2-2h43.087a2 2 0 0 1 2 2v43.087a2 2 0 0 1-2 2zm-41.087-4h39.087v-39.087H65.369v39.087z"/><path class="st4" d="M149.544 194.631h-43.088a2 2 0 0 1-2-2v-43.087a2 2 0 0 1 2-2h43.088a2 2 0 0 1 2 2v43.087a2 2 0 0 1-2 2zm-41.088-4h39.088v-39.087h-39.088v39.087z"/><path class="st4" d="M192.631 194.631h-43.087a2 2 0 0 1-2-2v-43.087a2 2 0 0 1 2-2h43.087a2 2 0 0 1 2 2v43.087a2 2 0 0 1-2 2zm-41.087-4h39.087v-39.087h-39.087v39.087zM106.456 237.719H63.369a2 2 0 0 1-2-2v-43.088a2 2 0 0 1 2-2h43.087a2 2 0 0 1 2 2v43.088a2 2 0 0 1-2 2zm-41.087-4h39.087v-39.088H65.369v39.088z"/><path class="st4" d="M149.544 237.719h-43.088a2 2 0 0 1-2-2v-43.088a2 2 0 0 1 2-2h43.088a2 2 0 0 1 2 2v43.088a2 2 0 0 1-2 2zm-41.088-4h39.088v-39.088h-39.088v39.088z"/><path class="st4" d="M192.631 237.719h-43.087a2 2 0 0 1-2-2v-43.088a2 2 0 0 1 2-2h43.087a2 2 0 0 1 2 2v43.088a2 2 0 0 1-2 2zm-41.087-4h39.087v-39.088h-39.087v39.088zM235.719 108.456h-43.088a2 2 0 0 1-2-2V63.369a2 2 0 0 1 2-2h43.088a2 2 0 0 1 2 2v43.087a2 2 0 0 1-2 2zm-41.088-4h39.088V65.369h-39.088v39.087z"/><path class="st4" d="M235.719 151.544h-43.088a2 2 0 0 1-2-2v-43.088a2 2 0 0 1 2-2h43.088a2 2 0 0 1 2 2v43.088a2 2 0 0 1-2 2zm-41.088-4h39.088v-39.088h-39.088v39.088z"/><path class="st4" d="M235.719 194.631h-43.088a2 2 0 0 1-2-2v-43.087a2 2 0 0 1 2-2h43.088a2 2 0 0 1 2 2v43.087a2 2 0 0 1-2 2zm-41.088-4h39.088v-39.087h-39.088v39.087zM63.369 108.456H20.281a2 2 0 0 1-2-2V63.369a2 2 0 0 1 2-2h43.088a2 2 0 0 1 2 2v43.087a2 2 0 0 1-2 2zm-41.088-4h39.088V65.369H22.281v39.087z"/><path class="st4" d="M63.369 151.544H20.281a2 2 0 0 1-2-2v-43.088a2 2 0 0 1 2-2h43.088a2 2 0 0 1 2 2v43.088a2 2 0 0 1-2 2zm-41.088-4h39.088v-39.088H22.281v39.088z"/><path class="st4" d="M63.369 194.631H20.281a2 2 0 0 1-2-2v-43.087a2 2 0 0 1 2-2h43.088a2 2 0 0 1 2 2v43.087a2 2 0 0 1-2 2zm-41.088-4h39.088v-39.087H22.281v39.087z"/><path class="st0" d="M106.456 121.537c-8.329 0-15.081-6.752-15.081-15.081s6.752-15.081 15.081-15.081 15.081 6.752 15.081 15.081-6.752 15.081-15.081 15.081z"/><path class="st4" d="M106.456 123.537c-9.418 0-17.08-7.662-17.08-17.081 0-9.418 7.662-17.08 17.08-17.08 9.419 0 17.081 7.662 17.081 17.08 0 9.419-7.662 17.081-17.081 17.081zm0-30.161c-7.212 0-13.08 5.868-13.08 13.08 0 7.213 5.868 13.081 13.08 13.081 7.213 0 13.081-5.868 13.081-13.081 0-7.212-5.868-13.08-13.081-13.08z"/><path class="st0" d="M106.456 78.449c-8.329 0-15.081-6.752-15.081-15.081s6.752-15.081 15.081-15.081 15.081 6.752 15.081 15.081c0 8.33-6.752 15.081-15.081 15.081z"/><path class="st4" d="M106.456 80.449c-9.418 0-17.08-7.662-17.08-17.08 0-9.419 7.662-17.081 17.08-17.081 9.419 0 17.081 7.662 17.081 17.081 0 9.418-7.662 17.08-17.081 17.08zm0-30.161c-7.212 0-13.08 5.868-13.08 13.081 0 7.212 5.868 13.08 13.08 13.08 7.213 0 13.081-5.868 13.081-13.08 0-7.213-5.868-13.081-13.081-13.081z"/><path class="st0" d="M149.544 78.449c-8.329 0-15.081-6.752-15.081-15.081s6.752-15.081 15.081-15.081 15.081 6.752 15.081 15.081c-.001 8.33-6.752 15.081-15.081 15.081z"/><path class="st4" d="M149.544 80.449c-9.419 0-17.081-7.662-17.081-17.08 0-9.419 7.662-17.081 17.081-17.081 9.418 0 17.08 7.662 17.08 17.081 0 9.418-7.662 17.08-17.08 17.08zm0-30.161c-7.213 0-13.081 5.868-13.081 13.081 0 7.212 5.868 13.08 13.081 13.08 7.212 0 13.08-5.868 13.08-13.08 0-7.213-5.868-13.081-13.08-13.081z"/><path class="st0" d="M192.884 207.712c-8.329 0-15.081-6.752-15.081-15.081s6.752-15.081 15.081-15.081 15.081 6.752 15.081 15.081-6.752 15.081-15.081 15.081z"/><path class="st4" d="M192.885 209.712c-9.419 0-17.081-7.662-17.081-17.081 0-9.418 7.662-17.08 17.081-17.08 9.418 0 17.08 7.662 17.08 17.08 0 9.419-7.662 17.081-17.08 17.081zm0-30.161c-7.213 0-13.081 5.868-13.081 13.08 0 7.213 5.868 13.081 13.081 13.081 7.212 0 13.08-5.868 13.08-13.081 0-7.212-5.868-13.08-13.08-13.08z"/><path class="st0" d="M63.369 164.624c-8.329 0-15.081-6.752-15.081-15.081s6.752-15.081 15.081-15.081 15.081 6.752 15.081 15.081c-.001 8.33-6.752 15.081-15.081 15.081z"/><path class="st4" d="M63.369 166.624c-9.419 0-17.081-7.662-17.081-17.08 0-9.419 7.662-17.081 17.081-17.081 9.418 0 17.08 7.662 17.08 17.081 0 9.418-7.662 17.08-17.08 17.08zm0-30.161c-7.213 0-13.081 5.868-13.081 13.081 0 7.212 5.868 13.08 13.081 13.08 7.212 0 13.08-5.868 13.08-13.08 0-7.213-5.868-13.081-13.08-13.081z"/><path class="st5" d="M106.456 164.624c-8.329 0-15.081-6.752-15.081-15.081s6.752-15.081 15.081-15.081 15.081 6.752 15.081 15.081c0 8.33-6.752 15.081-15.081 15.081z"/><path class="st4" d="M106.456 166.624c-9.418 0-17.08-7.662-17.08-17.08 0-9.419 7.662-17.081 17.08-17.081 9.419 0 17.081 7.662 17.081 17.081 0 9.418-7.662 17.08-17.081 17.08zm0-30.161c-7.212 0-13.08 5.868-13.08 13.081 0 7.212 5.868 13.08 13.08 13.08 7.213 0 13.081-5.868 13.081-13.08 0-7.213-5.868-13.081-13.081-13.081z"/><path class="st5" d="M149.544 207.712c-8.329 0-15.081-6.752-15.081-15.081s6.752-15.081 15.081-15.081 15.081 6.752 15.081 15.081c-.001 8.329-6.752 15.081-15.081 15.081z"/><path class="st4" d="M149.544 209.712c-9.419 0-17.081-7.662-17.081-17.081 0-9.418 7.662-17.08 17.081-17.08 9.418 0 17.08 7.662 17.08 17.08 0 9.419-7.662 17.081-17.08 17.081zm0-30.161c-7.213 0-13.081 5.868-13.081 13.08 0 7.213 5.868 13.081 13.081 13.081 7.212 0 13.08-5.868 13.08-13.081 0-7.212-5.868-13.08-13.08-13.08z"/><path class="st5" d="M149.544 121.537c-8.329 0-15.081-6.752-15.081-15.081s6.752-15.081 15.081-15.081 15.081 6.752 15.081 15.081c-.001 8.329-6.752 15.081-15.081 15.081z"/><path class="st4" d="M149.544 123.537c-9.419 0-17.081-7.662-17.081-17.081 0-9.418 7.662-17.08 17.081-17.08 9.418 0 17.08 7.662 17.08 17.08 0 9.419-7.662 17.081-17.08 17.081zm0-30.161c-7.213 0-13.081 5.868-13.081 13.08 0 7.213 5.868 13.081 13.081 13.081 7.212 0 13.08-5.868 13.08-13.081 0-7.212-5.868-13.08-13.08-13.08z"/><path class="st5" d="M192.631 164.624c-8.329 0-15.081-6.752-15.081-15.081s6.752-15.081 15.081-15.081 15.081 6.752 15.081 15.081c0 8.33-6.752 15.081-15.081 15.081z"/><path class="st4" d="M192.631 166.624c-9.418 0-17.08-7.662-17.08-17.08 0-9.419 7.662-17.081 17.08-17.081 9.419 0 17.081 7.662 17.081 17.081 0 9.418-7.662 17.08-17.081 17.08zm0-30.161c-7.212 0-13.08 5.868-13.08 13.081 0 7.212 5.868 13.08 13.08 13.08 7.213 0 13.081-5.868 13.081-13.08 0-7.213-5.868-13.081-13.081-13.081z"/><path class="st5" d="M63.369 121.537c-8.329 0-15.081-6.752-15.081-15.081s6.752-15.081 15.081-15.081 15.081 6.752 15.081 15.081c-.001 8.329-6.752 15.081-15.081 15.081z"/><path class="st4" d="M63.369 123.537c-9.419 0-17.081-7.662-17.081-17.081 0-9.418 7.662-17.08 17.081-17.08 9.418 0 17.08 7.662 17.08 17.08 0 9.419-7.662 17.081-17.08 17.081zm0-30.161c-7.213 0-13.081 5.868-13.081 13.08 0 7.213 5.868 13.081 13.081 13.081 7.212 0 13.08-5.868 13.08-13.081 0-7.212-5.868-13.08-13.08-13.08z"/><path class="st4" d="M227.885 237.719H28.115c-5.423 0-9.834-4.411-9.834-9.834V28.115c0-5.423 4.411-9.834 9.834-9.834h199.77c5.423 0 9.834 4.411 9.834 9.834v199.77c0 5.423-4.411 9.834-9.834 9.834zM28.115 22.281a5.84 5.84 0 0 0-5.834 5.834v199.77a5.84 5.84 0 0 0 5.834 5.834h199.77a5.84 5.84 0 0 0 5.834-5.834V28.115a5.84 5.84 0 0 0-5.834-5.834H28.115z"/><path class="st4" d="M229.688 249.688H26.312c-11.028 0-20-8.972-20-20V26.313c0-11.028 8.972-20 20-20h203.375c11.028 0 20 8.972 20 20v203.375c.001 11.028-8.971 20-19.999 20zM26.312 10.313c-8.822 0-16 7.178-16 16v203.375c0 8.822 7.178 16 16 16h203.375c8.822 0 16-7.178 16-16V26.313c0-8.822-7.178-16-16-16H26.312z"/></svg>