<svg version="1.1" id="Layer_1" xmlns="http://www.w3.org/2000/svg" x="0" y="0" viewBox="0 0 256 256" style="enable-background:new 0 0 256 256" xml:space="preserve"><style>.st0{fill:#4671c6}.st2{fill:#f9a7a7}.st3{fill:#a4c9ff}.st4{fill:#3762cc}.st5{fill:#e0ebfc}.st6{fill:#6bdddd}</style><path class="st3" d="M60.8 16h44.8v44.8H60.8z"/><path class="st3" d="M105.6 16h44.8v44.8h-44.8zM150.4 16h44.8v44.8h-44.8zM16 60.8h44.8v44.8H16zM195.2 60.8H240v44.8h-44.8zM16 105.6h44.8v44.8H16zM195.2 105.6H240v44.8h-44.8zM16 150.4h44.8v44.8H16z"/><path style="fill:#f9cfcf" d="M150.4 60.8H60.8V195.2H195.2V60.8z"/><path class="st3" d="M195.2 150.4H240v44.8h-44.8zM60.8 195.2h44.8V240H60.8z"/><path class="st3" d="M105.6 195.2h44.8V240h-44.8zM150.4 195.2h44.8V240h-44.8z"/><path class="st0" d="M228 16h-32.8v44.8H240V28c0-6.627-5.373-12-12-12zM16 28v32.8h44.8V16H28c-6.627 0-12 5.373-12 12zM28 240h32.8v-44.8H16V228c0 6.627 5.373 12 12 12zM240 228v-32.8h-44.8V240H228c6.627 0 12-5.373 12-12z"/><path class="st4" d="M105.6 62.8H60.8a2 2 0 0 1-2-2V16a2 2 0 0 1 2-2h44.8a2 2 0 0 1 2 2v44.8a2 2 0 0 1-2 2zm-42.8-4h40.8V18H62.8v40.8z"/><path class="st4" d="M150.4 62.8h-44.8a2 2 0 0 1-2-2V16a2 2 0 0 1 2-2h44.8a2 2 0 0 1 2 2v44.8a2 2 0 0 1-2 2zm-42.8-4h40.8V18h-40.8v40.8z"/><path class="st4" d="M195.2 62.8h-44.8a2 2 0 0 1-2-2V16a2 2 0 0 1 2-2h44.8a2 2 0 0 1 2 2v44.8a2 2 0 0 1-2 2zm-42.8-4h40.8V18h-40.8v40.8zM60.8 107.6H16a2 2 0 0 1-2-2V60.8a2 2 0 0 1 2-2h44.8a2 2 0 0 1 2 2v44.8a2 2 0 0 1-2 2zm-42.8-4h40.8V62.8H18v40.8z"/><path class="st4" d="M240 107.6h-44.8a2 2 0 0 1-2-2V60.8a2 2 0 0 1 2-2H240a2 2 0 0 1 2 2v44.8a2 2 0 0 1-2 2zm-42.8-4H238V62.8h-40.8v40.8zM60.8 152.4H16a2 2 0 0 1-2-2v-44.8a2 2 0 0 1 2-2h44.8a2 2 0 0 1 2 2v44.8a2 2 0 0 1-2 2zm-42.8-4h40.8v-40.8H18v40.8z"/><path class="st4" d="M240 152.4h-44.8a2 2 0 0 1-2-2v-44.8a2 2 0 0 1 2-2H240a2 2 0 0 1 2 2v44.8a2 2 0 0 1-2 2zm-42.8-4H238v-40.8h-40.8v40.8zM60.8 197.2H16a2 2 0 0 1-2-2v-44.8a2 2 0 0 1 2-2h44.8a2 2 0 0 1 2 2v44.8a2 2 0 0 1-2 2zm-42.8-4h40.8v-40.8H18v40.8z"/><path class="st4" d="M240 197.2h-44.8a2 2 0 0 1-2-2v-44.8a2 2 0 0 1 2-2H240a2 2 0 0 1 2 2v44.8a2 2 0 0 1-2 2zm-42.8-4H238v-40.8h-40.8v40.8zM105.6 242H60.8a2 2 0 0 1-2-2v-44.8a2 2 0 0 1 2-2h44.8a2 2 0 0 1 2 2V240a2 2 0 0 1-2 2zm-42.8-4h40.8v-40.8H62.8V238z"/><path class="st4" d="M150.4 242h-44.8a2 2 0 0 1-2-2v-44.8a2 2 0 0 1 2-2h44.8a2 2 0 0 1 2 2V240a2 2 0 0 1-2 2zm-42.8-4h40.8v-40.8h-40.8V238z"/><path class="st4" d="M195.2 242h-44.8a2 2 0 0 1-2-2v-44.8a2 2 0 0 1 2-2h44.8a2 2 0 0 1 2 2V240a2 2 0 0 1-2 2zm-42.8-4h40.8v-40.8h-40.8V238zM240 62.8h-44.8a2 2 0 0 1-2-2V16a2 2 0 0 1 2-2H228c7.72 0 14 6.28 14 14v32.8a2 2 0 0 1-2 2zm-42.8-4H238V28c0-5.514-4.486-10-10-10h-30.8v40.8zM60.8 62.8H16a2 2 0 0 1-2-2V28c0-7.72 6.28-14 14-14h32.8a2 2 0 0 1 2 2v44.8a2 2 0 0 1-2 2zm-42.8-4h40.8V18H28c-5.514 0-10 4.486-10 10v30.8zM60.8 242H28c-7.72 0-14-6.28-14-14v-32.8a2 2 0 0 1 2-2h44.8a2 2 0 0 1 2 2V240a2 2 0 0 1-2 2zM18 197.2V228c0 5.514 4.486 10 10 10h30.8v-40.8H18z"/><path class="st4" d="M228 242h-32.8a2 2 0 0 1-2-2v-44.8a2 2 0 0 1 2-2H240a2 2 0 0 1 2 2V228c0 7.72-6.28 14-14 14zm-30.8-4H228c5.514 0 10-4.486 10-10v-30.8h-40.8V238z"/><path class="st6" d="m97.361 184.471-25.833-25.833a1.7 1.7 0 0 1 0-2.404L85.2 142.562a1.7 1.7 0 0 1 2.404 0l25.833 25.833a1.7 1.7 0 0 1 0 2.404l-13.672 13.672a1.7 1.7 0 0 1-2.404 0zM168.395 113.438l-25.833-25.833a1.7 1.7 0 0 1 0-2.404l13.672-13.672a1.7 1.7 0 0 1 2.404 0l25.833 25.833a1.7 1.7 0 0 1 0 2.404l-13.672 13.672a1.7 1.7 0 0 1-2.404 0z"/><path class="st5" d="M123.087 134.246H95.755a4.913 4.913 0 0 1-4.913-4.913v-27.331c0-2.714 2.2-4.913 4.913-4.913h27.331c2.714 0 4.913 2.2 4.913 4.913v27.331a4.912 4.912 0 0 1-4.912 4.913z"/><circle class="st2" cx="109.421" cy="115.667" r="4.376"/><path class="st4" d="M123.086 136.246H95.755a6.922 6.922 0 0 1-6.914-6.914v-27.331c0-3.812 3.102-6.913 6.914-6.913h27.331c3.812 0 6.914 3.102 6.914 6.913v27.331a6.922 6.922 0 0 1-6.914 6.914zM95.755 99.088a2.917 2.917 0 0 0-2.914 2.913v27.331a2.918 2.918 0 0 0 2.914 2.914h27.331a2.918 2.918 0 0 0 2.914-2.914v-27.331a2.917 2.917 0 0 0-2.914-2.913H95.755z"/><path class="st5" d="M160.245 158.912h-27.331a4.913 4.913 0 0 1-4.913-4.913v-27.331c0-2.714 2.2-4.913 4.913-4.913h27.331c2.714 0 4.913 2.2 4.913 4.913v27.331c0 2.713-2.2 4.913-4.913 4.913z"/><circle class="st2" cx="139.63" cy="133.385" r="4.376"/><circle class="st2" cx="153.528" cy="147.282" r="4.376"/><path class="st4" d="M160.244 160.912h-27.331a6.921 6.921 0 0 1-6.913-6.913v-27.331a6.921 6.921 0 0 1 6.913-6.914h27.331a6.922 6.922 0 0 1 6.914 6.914v27.331a6.92 6.92 0 0 1-6.914 6.913zm-27.331-37.158a2.917 2.917 0 0 0-2.913 2.914v27.331a2.917 2.917 0 0 0 2.913 2.913h27.331a2.917 2.917 0 0 0 2.914-2.913v-27.331a2.918 2.918 0 0 0-2.914-2.914h-27.331zM98.563 186.968c-.948 0-1.895-.36-2.616-1.082l-25.833-25.833c-.699-.699-1.084-1.628-1.084-2.616s.385-1.917 1.084-2.616l13.672-13.673a3.705 3.705 0 0 1 5.231-.001l25.833 25.834a3.703 3.703 0 0 1 0 5.232l-13.672 13.673a3.684 3.684 0 0 1-2.615 1.082zm-25.408-29.531 25.408 25.409 13.248-13.249-25.408-25.408-13.248 13.248zM169.597 115.934c-.947 0-1.895-.36-2.616-1.082L141.147 89.02a3.706 3.706 0 0 1-.001-5.231l13.674-13.674c1.398-1.398 3.834-1.398 5.232 0l25.833 25.833c.699.699 1.084 1.628 1.084 2.616s-.385 1.917-1.084 2.616l-13.673 13.672a3.685 3.685 0 0 1-2.615 1.082zm.212-3.911h.01-.01zm-25.622-25.62 25.409 25.408 13.249-13.248-25.409-25.409-13.249 13.249z"/></svg>