<svg xmlns="http://www.w3.org/2000/svg" viewBox="0 0 64 64" xml:space="preserve"><path fill="#3C3C3C" d="m38 32 1.547-1.031A10 10 0 0 0 44 22.648V16c0-6.627-5.373-12-12-12S20 9.373 20 16v6.648a10 10 0 0 0 4.453 8.321L26 32h12z"/><path fill="#505050" d="M44 36H20v-1.107a2 2 0 0 1 1.106-1.789L28 30l4 4 4-4 6.894 3.104A2 2 0 0 1 44 34.893V36z"/><path fill="#3C3C3C" d="m25.106 33.104 4.136-1.862L28 30l-6.894 3.104A2 2 0 0 0 20 34.893V36h4v-1.107a2 2 0 0 1 1.106-1.789z"/><path fill="#D2AA82" d="M28 30v-4.343h8V30l-4 4z"/><path fill="#64C8F0" d="M43.854 40.261c.701-1.286 2.047-2.085 3.512-2.085s2.811.799 3.512 2.085L52 42.318V38a2 2 0 0 0-2-2H14a2 2 0 0 0-2 2v16a2 2 0 0 0 2 2h21.27l8.584-15.739z"/><path fill="#505050" d="M35.224 56.085 35.27 56H14a2 2 0 1 0 0 4h21.274a3.964 3.964 0 0 1-.05-3.915z"/><path fill="#F0C8A0" d="M40 22.343V18a8 8 0 0 0-16 0v4.343c0 1.061.421 2.078 1.172 2.828l1.657 1.657A4.001 4.001 0 0 0 29.657 28h4.686a3.995 3.995 0 0 0 2.828-1.172l1.657-1.657A3.995 3.995 0 0 0 40 22.343z"/><path fill="#46AAD2" d="M16 54V38a2 2 0 0 1 2-2h-4a2 2 0 0 0-2 2v16a2 2 0 0 0 2 2h4a2 2 0 0 1-2-2z"/><path fill="#3C3C3C" d="M16 58a2 2 0 0 1 2-2h-4a2 2 0 1 0 0 4h4a2 2 0 0 1-2-2z"/><path fill="#505050" d="M32 4c-6.627 0-12 5.373-12 12v6.648c0 1.215.227 2.399.641 3.506C22.246 21.415 26.72 18 32 18s9.754 3.415 11.359 8.154c.414-1.107.641-2.291.641-3.506V16c0-6.627-5.373-12-12-12z"/><path fill="#F0F0F0" d="M31.533 42.027a4.012 4.012 0 0 0-3.493 3.404 3.988 3.988 0 0 0 1.312 3.56.77.77 0 0 1 .249.579v.03a.4.4 0 0 0 .4.4h.4a.4.4 0 0 0 .4-.4.4.4 0 1 1 .8 0 .4.4 0 1 0 .8 0 .4.4 0 1 1 .8 0 .4.4 0 0 0 .4.4H34a.4.4 0 0 0 .4-.4v-.03c0-.22.086-.435.251-.581A3.982 3.982 0 0 0 36 46a4 4 0 0 0-4.467-3.973zM30.4 47.2a1.2 1.2 0 1 1 0-2.4 1.2 1.2 0 0 1 0 2.4zm1.6.8a.4.4 0 1 1 0-.8.4.4 0 0 1 0 .8zm1.6-.8a1.2 1.2 0 1 1 0-2.4 1.2 1.2 0 0 1 0 2.4z"/><path fill="#FA6450" d="m45.61 41.219-8.63 15.823c-.727 1.333.237 2.958 1.755 2.958h17.262c1.518 0 2.483-1.625 1.756-2.958l-8.631-15.823c-.758-1.39-2.754-1.39-3.512 0z"/><path fill="#DC4632" d="m38.346 57.042 8.631-15.823a1.955 1.955 0 0 1 1.073-.908c-.874-.315-1.931-.023-2.439.908L36.98 57.042c-.727 1.333.237 2.958 1.755 2.958h1.366c-1.518 0-2.482-1.625-1.755-2.958z"/><path fill="#F0F0F0" d="M47.366 52a1 1 0 0 1-1-1v-4a1 1 0 0 1 2 0v4a1 1 0 0 1-1 1zM47.366 56a1 1 0 0 1 0-2 1 1 0 1 1 0 2z"/></svg>